# xmcd
#
# Track frame offsets:
# 150
# 16771
# 33799
# 49720
# 65049
# 85255
# 99090
# 115490
# 129782
# 146081
# 163505
# 181698
# 200672
# 218410
# 234923
# 250157
# 266563
#
# Disc length: 3819 seconds
#
#
# Revision: 0
# Processed by: cddbd v1.5.1PL2 Copyright (c) Steve Scherf et al.
# Submitted via: FreeRIP 2.944 
#
DISCID=d80ee911
DTITLE=Nelson e Davi - Acústico Vol. 2
DYEAR=2006
DGENRE=Country
TTITLE0=Tudo por voce
TTITLE1=A culpa e sua
TTITLE2=Vou te amar
TTITLE3=Barco de papel
TTITLE4=Pout-Pourri
TTITLE5=Amor de novela
TTITLE6=Nao va amor
TTITLE7=Pra nunca dizer adeus
TTITLE8=Sonho de amor
TTITLE9=Roupa de lua de mel
TTITLE10=Pout-Pourri 2
TTITLE11=Talvez seja amor
TTITLE12=Eu nasci pra te amar
TTITLE13=Sem ela
TTITLE14=Eu sou Brasil
TTITLE15=Ficar comigo
TTITLE16=Inocente como um anjo
EXTD=Acústico Vol. 2
EXTT0=
EXTT1=
EXTT2=
EXTT3=
EXTT4=
EXTT5=
EXTT6=
EXTT7=
EXTT8=
EXTT9=
EXTT10=
EXTT11=
EXTT12=
EXTT13=
EXTT14=
EXTT15=
EXTT16=
PLAYORDER=
